<mxfile host="app.diagrams.net" modified="2023-06-28T17:37:00.511Z" agent="Mozilla/5.0 (Macintosh; Intel Mac OS X 10_15_7) AppleWebKit/537.36 (KHTML, like Gecko) Chrome/114.0.0.0 Safari/537.36" etag="QznTEnEDYbpVl7cwVNjG" version="21.5.1" type="device">
  <diagram name="Page-1" id="0783ab3e-0a74-02c8-0abd-f7b4e66b4bec">
    <mxGraphModel dx="1063" dy="544" grid="1" gridSize="10" guides="1" tooltips="1" connect="1" arrows="1" fold="1" page="1" pageScale="1" pageWidth="850" pageHeight="1100" background="none" math="0" shadow="0">
      <root>
        <mxCell id="0" />
        <mxCell id="1" parent="0" />
        <mxCell id="aZ85ElAMfdaMfV6Kr7nG-82" value="Jednostka główna odbiera sygnał o problemie jednego z czujników" style="rounded=1;whiteSpace=wrap;html=1;shadow=0;comic=0;labelBackgroundColor=none;strokeWidth=1;fontFamily=Verdana;fontSize=12;align=center;arcSize=50;" vertex="1" parent="1">
          <mxGeometry x="60" y="380" width="220" height="60" as="geometry" />
        </mxCell>
        <mxCell id="aZ85ElAMfdaMfV6Kr7nG-83" value="" style="whiteSpace=wrap;html=1;rounded=0;shadow=0;comic=0;labelBackgroundColor=none;strokeWidth=1;fillColor=#000000;fontFamily=Verdana;fontSize=12;align=center;rotation=0;" vertex="1" parent="1">
          <mxGeometry x="70" y="470" width="190" height="10" as="geometry" />
        </mxCell>
        <mxCell id="aZ85ElAMfdaMfV6Kr7nG-84" value="" style="endArrow=classic;html=1;rounded=0;exitX=0.408;exitY=0.991;exitDx=0;exitDy=0;exitPerimeter=0;" edge="1" parent="1" source="aZ85ElAMfdaMfV6Kr7nG-82">
          <mxGeometry width="50" height="50" relative="1" as="geometry">
            <mxPoint x="150" y="570" as="sourcePoint" />
            <mxPoint x="150" y="470" as="targetPoint" />
          </mxGeometry>
        </mxCell>
        <mxCell id="aZ85ElAMfdaMfV6Kr7nG-85" value="&lt;font style=&quot;font-size: 9px;&quot;&gt;Jednostka główna ponawia próbę komunikacji z czujnikami&lt;/font&gt;" style="shape=note;whiteSpace=wrap;html=1;rounded=0;shadow=0;comic=0;labelBackgroundColor=none;strokeWidth=1;fontFamily=Verdana;fontSize=12;align=center;size=20;" vertex="1" parent="1">
          <mxGeometry x="70" y="160" width="150" height="34" as="geometry" />
        </mxCell>
        <mxCell id="aZ85ElAMfdaMfV6Kr7nG-86" style="edgeStyle=none;rounded=0;html=1;dashed=1;labelBackgroundColor=none;startArrow=none;startFill=0;startSize=5;endArrow=oval;endFill=0;endSize=5;jettySize=auto;orthogonalLoop=1;strokeWidth=1;fontFamily=Verdana;fontSize=12;exitX=0.623;exitY=0.965;exitDx=0;exitDy=0;exitPerimeter=0;" edge="1" parent="1" source="aZ85ElAMfdaMfV6Kr7nG-85">
          <mxGeometry relative="1" as="geometry">
            <mxPoint x="240" y="100" as="sourcePoint" />
            <mxPoint x="190" y="256" as="targetPoint" />
          </mxGeometry>
        </mxCell>
        <mxCell id="aZ85ElAMfdaMfV6Kr7nG-87" value="" style="endArrow=classic;html=1;rounded=0;exitX=0.388;exitY=1.464;exitDx=0;exitDy=0;exitPerimeter=0;" edge="1" parent="1" source="aZ85ElAMfdaMfV6Kr7nG-83">
          <mxGeometry width="50" height="50" relative="1" as="geometry">
            <mxPoint x="170" y="650" as="sourcePoint" />
            <mxPoint x="144" y="540" as="targetPoint" />
            <Array as="points">
              <mxPoint x="144" y="540" />
            </Array>
          </mxGeometry>
        </mxCell>
        <mxCell id="aZ85ElAMfdaMfV6Kr7nG-88" value="Generowanie raportu o usterce czujnika" style="rounded=1;whiteSpace=wrap;html=1;shadow=0;comic=0;labelBackgroundColor=none;strokeWidth=1;fontFamily=Verdana;fontSize=12;align=center;arcSize=50;" vertex="1" parent="1">
          <mxGeometry x="60" y="540" width="160" height="40" as="geometry" />
        </mxCell>
        <mxCell id="aZ85ElAMfdaMfV6Kr7nG-89" value="" style="endArrow=classic;html=1;rounded=0;exitX=0.5;exitY=1;exitDx=0;exitDy=0;" edge="1" parent="1" source="aZ85ElAMfdaMfV6Kr7nG-88">
          <mxGeometry width="50" height="50" relative="1" as="geometry">
            <mxPoint x="110" y="730" as="sourcePoint" />
            <mxPoint x="140" y="610" as="targetPoint" />
          </mxGeometry>
        </mxCell>
        <mxCell id="aZ85ElAMfdaMfV6Kr7nG-90" value="Oczekiwanie na dalsze polecenia" style="rounded=1;whiteSpace=wrap;html=1;shadow=0;comic=0;labelBackgroundColor=none;strokeWidth=1;fontFamily=Verdana;fontSize=12;align=center;arcSize=50;" vertex="1" parent="1">
          <mxGeometry x="60" y="610" width="160" height="40" as="geometry" />
        </mxCell>
        <mxCell id="aZ85ElAMfdaMfV6Kr7nG-91" value="" style="whiteSpace=wrap;html=1;rounded=0;shadow=0;comic=0;labelBackgroundColor=none;strokeWidth=1;fillColor=#000000;fontFamily=Verdana;fontSize=12;align=center;rotation=0;" vertex="1" parent="1">
          <mxGeometry x="60" y="670" width="190" height="10" as="geometry" />
        </mxCell>
        <mxCell id="aZ85ElAMfdaMfV6Kr7nG-92" value="" style="endArrow=classic;html=1;rounded=0;exitX=0.461;exitY=1.046;exitDx=0;exitDy=0;exitPerimeter=0;entryX=0.393;entryY=0.082;entryDx=0;entryDy=0;entryPerimeter=0;" edge="1" parent="1" source="aZ85ElAMfdaMfV6Kr7nG-90" target="aZ85ElAMfdaMfV6Kr7nG-91">
          <mxGeometry width="50" height="50" relative="1" as="geometry">
            <mxPoint x="140" y="770" as="sourcePoint" />
            <mxPoint x="190" y="720" as="targetPoint" />
          </mxGeometry>
        </mxCell>
        <mxCell id="aZ85ElAMfdaMfV6Kr7nG-93" value="" style="endArrow=classic;html=1;rounded=0;exitX=0.088;exitY=1.264;exitDx=0;exitDy=0;exitPerimeter=0;" edge="1" parent="1" source="aZ85ElAMfdaMfV6Kr7nG-91">
          <mxGeometry width="50" height="50" relative="1" as="geometry">
            <mxPoint x="160" y="850" as="sourcePoint" />
            <mxPoint x="77" y="730" as="targetPoint" />
          </mxGeometry>
        </mxCell>
        <mxCell id="aZ85ElAMfdaMfV6Kr7nG-94" value="Przejście w stan serwisowy" style="rounded=1;whiteSpace=wrap;html=1;shadow=0;comic=0;labelBackgroundColor=none;strokeWidth=1;fontFamily=Verdana;fontSize=12;align=center;arcSize=50;" vertex="1" parent="1">
          <mxGeometry x="50" y="730" width="100" height="60" as="geometry" />
        </mxCell>
        <mxCell id="aZ85ElAMfdaMfV6Kr7nG-95" value="&lt;font style=&quot;font-size: 9px;&quot;&gt;W zależności od konfiguracji lub informacji od administratora, system przechodzi w stan wymagający serwisu lub zaczyna monitorowanie z użyciem reszty działających czujników&lt;/font&gt;" style="shape=note;whiteSpace=wrap;html=1;rounded=0;shadow=0;comic=0;labelBackgroundColor=none;strokeWidth=1;fontFamily=Verdana;fontSize=12;align=center;size=20;" vertex="1" parent="1">
          <mxGeometry x="170" y="800" width="120" height="120" as="geometry" />
        </mxCell>
        <mxCell id="aZ85ElAMfdaMfV6Kr7nG-96" style="edgeStyle=none;rounded=0;html=1;dashed=1;labelBackgroundColor=none;startArrow=none;startFill=0;startSize=5;endArrow=oval;endFill=0;endSize=5;jettySize=auto;orthogonalLoop=1;strokeWidth=1;fontFamily=Verdana;fontSize=12;entryX=0.75;entryY=1;entryDx=0;entryDy=0;exitX=-0.009;exitY=0.344;exitDx=0;exitDy=0;exitPerimeter=0;" edge="1" parent="1" source="aZ85ElAMfdaMfV6Kr7nG-95" target="aZ85ElAMfdaMfV6Kr7nG-94">
          <mxGeometry relative="1" as="geometry">
            <mxPoint x="129.32" y="840" as="sourcePoint" />
            <mxPoint x="210.67408163265299" y="790" as="targetPoint" />
          </mxGeometry>
        </mxCell>
        <mxCell id="aZ85ElAMfdaMfV6Kr7nG-97" style="edgeStyle=none;rounded=0;html=1;dashed=1;labelBackgroundColor=none;startArrow=none;startFill=0;startSize=5;endArrow=oval;endFill=0;endSize=5;jettySize=auto;orthogonalLoop=1;strokeWidth=1;fontFamily=Verdana;fontSize=12;exitX=0.678;exitY=-0.04;exitDx=0;exitDy=0;exitPerimeter=0;" edge="1" parent="1" source="aZ85ElAMfdaMfV6Kr7nG-95">
          <mxGeometry relative="1" as="geometry">
            <mxPoint x="208.64999999999998" y="710" as="sourcePoint" />
            <mxPoint x="190" y="720" as="targetPoint" />
          </mxGeometry>
        </mxCell>
        <mxCell id="aZ85ElAMfdaMfV6Kr7nG-98" value="" style="endArrow=classic;html=1;rounded=0;exitX=0.5;exitY=1;exitDx=0;exitDy=0;" edge="1" parent="1" source="aZ85ElAMfdaMfV6Kr7nG-94">
          <mxGeometry width="50" height="50" relative="1" as="geometry">
            <mxPoint x="70" y="910" as="sourcePoint" />
            <mxPoint x="450" y="1140" as="targetPoint" />
            <Array as="points">
              <mxPoint x="100" y="950" />
              <mxPoint x="450" y="950" />
            </Array>
          </mxGeometry>
        </mxCell>
        <mxCell id="aZ85ElAMfdaMfV6Kr7nG-100" value="" style="ellipse;whiteSpace=wrap;html=1;rounded=0;shadow=0;comic=0;labelBackgroundColor=none;strokeWidth=1;fillColor=#000000;fontFamily=Verdana;fontSize=12;align=center;" vertex="1" parent="1">
          <mxGeometry x="435" y="70" width="40" height="40" as="geometry" />
        </mxCell>
        <mxCell id="aZ85ElAMfdaMfV6Kr7nG-101" value="Inicjalizacja wykonywania pomiarów" style="rounded=1;whiteSpace=wrap;html=1;shadow=0;comic=0;labelBackgroundColor=none;strokeWidth=1;fontFamily=Verdana;fontSize=12;align=center;arcSize=50;" vertex="1" parent="1">
          <mxGeometry x="320" y="180" width="270" height="20" as="geometry" />
        </mxCell>
        <mxCell id="aZ85ElAMfdaMfV6Kr7nG-102" style="edgeStyle=orthogonalEdgeStyle;rounded=0;html=1;labelBackgroundColor=none;startArrow=none;startFill=0;startSize=5;endArrow=classicThin;endFill=1;endSize=5;jettySize=auto;orthogonalLoop=1;strokeWidth=1;fontFamily=Verdana;fontSize=12" edge="1" parent="1" source="aZ85ElAMfdaMfV6Kr7nG-100" target="aZ85ElAMfdaMfV6Kr7nG-101">
          <mxGeometry relative="1" as="geometry">
            <Array as="points">
              <mxPoint x="455" y="165" />
            </Array>
          </mxGeometry>
        </mxCell>
        <mxCell id="aZ85ElAMfdaMfV6Kr7nG-103" value="" style="endArrow=classic;html=1;rounded=0;exitX=0.5;exitY=1;exitDx=0;exitDy=0;" edge="1" parent="1" source="aZ85ElAMfdaMfV6Kr7nG-101">
          <mxGeometry width="50" height="50" relative="1" as="geometry">
            <mxPoint x="400" y="410" as="sourcePoint" />
            <mxPoint x="455" y="240" as="targetPoint" />
          </mxGeometry>
        </mxCell>
        <mxCell id="aZ85ElAMfdaMfV6Kr7nG-104" value="Jednostka główna wysyła sygnały do czujników w celu sprawdzenia ich działania" style="rounded=1;whiteSpace=wrap;html=1;shadow=0;comic=0;labelBackgroundColor=none;strokeWidth=1;fontFamily=Verdana;fontSize=12;align=center;arcSize=50;" vertex="1" parent="1">
          <mxGeometry x="320" y="240" width="290" height="30" as="geometry" />
        </mxCell>
        <mxCell id="aZ85ElAMfdaMfV6Kr7nG-105" value="" style="whiteSpace=wrap;html=1;rounded=0;shadow=0;comic=0;labelBackgroundColor=none;strokeWidth=1;fillColor=#000000;fontFamily=Verdana;fontSize=12;align=center;rotation=0;" vertex="1" parent="1">
          <mxGeometry x="370" y="310" width="190" height="10" as="geometry" />
        </mxCell>
        <mxCell id="aZ85ElAMfdaMfV6Kr7nG-106" value="" style="endArrow=classic;html=1;rounded=0;exitX=0.468;exitY=1.067;exitDx=0;exitDy=0;exitPerimeter=0;entryX=0.451;entryY=0;entryDx=0;entryDy=0;entryPerimeter=0;" edge="1" parent="1" source="aZ85ElAMfdaMfV6Kr7nG-104" target="aZ85ElAMfdaMfV6Kr7nG-105">
          <mxGeometry width="50" height="50" relative="1" as="geometry">
            <mxPoint x="400" y="310" as="sourcePoint" />
            <mxPoint x="456" y="290" as="targetPoint" />
          </mxGeometry>
        </mxCell>
        <mxCell id="aZ85ElAMfdaMfV6Kr7nG-107" value="" style="endArrow=classic;html=1;rounded=0;exitX=0.056;exitY=1.346;exitDx=0;exitDy=0;exitPerimeter=0;" edge="1" parent="1" source="aZ85ElAMfdaMfV6Kr7nG-105">
          <mxGeometry width="50" height="50" relative="1" as="geometry">
            <mxPoint x="460" y="470" as="sourcePoint" />
            <mxPoint x="110" y="380" as="targetPoint" />
            <Array as="points">
              <mxPoint x="381" y="350" />
              <mxPoint x="110" y="350" />
            </Array>
          </mxGeometry>
        </mxCell>
        <mxCell id="aZ85ElAMfdaMfV6Kr7nG-108" value="Jednostka główna odbiera sygnał o prawidłowym działaniu wszystkich czujników" style="rounded=1;whiteSpace=wrap;html=1;shadow=0;comic=0;labelBackgroundColor=none;strokeWidth=1;fontFamily=Verdana;fontSize=12;align=center;arcSize=50;" vertex="1" parent="1">
          <mxGeometry x="355" y="360" width="220" height="60" as="geometry" />
        </mxCell>
        <mxCell id="aZ85ElAMfdaMfV6Kr7nG-109" value="" style="endArrow=classic;html=1;rounded=0;exitX=0.446;exitY=1.355;exitDx=0;exitDy=0;exitPerimeter=0;entryX=0.453;entryY=0.009;entryDx=0;entryDy=0;entryPerimeter=0;" edge="1" parent="1" source="aZ85ElAMfdaMfV6Kr7nG-105" target="aZ85ElAMfdaMfV6Kr7nG-108">
          <mxGeometry width="50" height="50" relative="1" as="geometry">
            <mxPoint x="470" y="380" as="sourcePoint" />
            <mxPoint x="520" y="330" as="targetPoint" />
          </mxGeometry>
        </mxCell>
        <mxCell id="aZ85ElAMfdaMfV6Kr7nG-110" value="" style="endArrow=classic;html=1;rounded=0;exitX=0.472;exitY=1.011;exitDx=0;exitDy=0;exitPerimeter=0;" edge="1" parent="1" source="aZ85ElAMfdaMfV6Kr7nG-108">
          <mxGeometry width="50" height="50" relative="1" as="geometry">
            <mxPoint x="460" y="510" as="sourcePoint" />
            <mxPoint x="459" y="460" as="targetPoint" />
          </mxGeometry>
        </mxCell>
        <mxCell id="aZ85ElAMfdaMfV6Kr7nG-111" value="System przechodzi w stan monitorowania warunków pogodowych" style="rounded=1;whiteSpace=wrap;html=1;shadow=0;comic=0;labelBackgroundColor=none;strokeWidth=1;fontFamily=Verdana;fontSize=12;align=center;arcSize=50;" vertex="1" parent="1">
          <mxGeometry x="360" y="460" width="220" height="60" as="geometry" />
        </mxCell>
        <mxCell id="aZ85ElAMfdaMfV6Kr7nG-112" value="" style="shape=mxgraph.bpmn.shape;html=1;verticalLabelPosition=bottom;labelBackgroundColor=#ffffff;verticalAlign=top;perimeter=ellipsePerimeter;outline=end;symbol=terminate;rounded=0;shadow=0;comic=0;strokeWidth=1;fontFamily=Verdana;fontSize=12;align=center;" vertex="1" parent="1">
          <mxGeometry x="460" y="830" width="40" height="40" as="geometry" />
        </mxCell>
        <mxCell id="aZ85ElAMfdaMfV6Kr7nG-113" value="" style="endArrow=classic;html=1;rounded=0;exitX=0.455;exitY=0.977;exitDx=0;exitDy=0;exitPerimeter=0;" edge="1" parent="1" source="aZ85ElAMfdaMfV6Kr7nG-111">
          <mxGeometry width="50" height="50" relative="1" as="geometry">
            <mxPoint x="480" y="760" as="sourcePoint" />
            <mxPoint x="460" y="570" as="targetPoint" />
          </mxGeometry>
        </mxCell>
        <mxCell id="aZ85ElAMfdaMfV6Kr7nG-114" value="Czujniki zbierają dane przez określony interwał czasowy" style="rounded=1;whiteSpace=wrap;html=1;shadow=0;comic=0;labelBackgroundColor=none;strokeWidth=1;fontFamily=Verdana;fontSize=12;align=center;arcSize=50;" vertex="1" parent="1">
          <mxGeometry x="360" y="570" width="230" height="30" as="geometry" />
        </mxCell>
        <mxCell id="aZ85ElAMfdaMfV6Kr7nG-115" value="Dane są przekazywane do jednostki głównej w celu dalszej analizy" style="rounded=1;whiteSpace=wrap;html=1;shadow=0;comic=0;labelBackgroundColor=none;strokeWidth=1;fontFamily=Verdana;fontSize=12;align=center;arcSize=50;" vertex="1" parent="1">
          <mxGeometry x="380" y="630" width="190" height="80" as="geometry" />
        </mxCell>
        <mxCell id="aZ85ElAMfdaMfV6Kr7nG-116" value="" style="endArrow=classic;html=1;rounded=0;exitX=0.443;exitY=1.039;exitDx=0;exitDy=0;exitPerimeter=0;" edge="1" parent="1" source="aZ85ElAMfdaMfV6Kr7nG-114">
          <mxGeometry width="50" height="50" relative="1" as="geometry">
            <mxPoint x="450" y="840" as="sourcePoint" />
            <mxPoint x="462" y="630" as="targetPoint" />
          </mxGeometry>
        </mxCell>
        <mxCell id="aZ85ElAMfdaMfV6Kr7nG-117" value="" style="endArrow=classic;html=1;rounded=0;entryX=0;entryY=0.75;entryDx=0;entryDy=0;exitX=0.25;exitY=1;exitDx=0;exitDy=0;" edge="1" parent="1" source="aZ85ElAMfdaMfV6Kr7nG-118" target="aZ85ElAMfdaMfV6Kr7nG-111">
          <mxGeometry width="50" height="50" relative="1" as="geometry">
            <mxPoint x="430" y="780" as="sourcePoint" />
            <mxPoint x="340" y="500" as="targetPoint" />
            <Array as="points">
              <mxPoint x="428" y="760" />
              <mxPoint x="340" y="760" />
              <mxPoint x="340" y="505" />
            </Array>
          </mxGeometry>
        </mxCell>
        <mxCell id="aZ85ElAMfdaMfV6Kr7nG-118" value="" style="whiteSpace=wrap;html=1;rounded=0;shadow=0;comic=0;labelBackgroundColor=none;strokeWidth=1;fillColor=#000000;fontFamily=Verdana;fontSize=12;align=center;rotation=0;" vertex="1" parent="1">
          <mxGeometry x="380" y="730" width="190" height="10" as="geometry" />
        </mxCell>
        <mxCell id="aZ85ElAMfdaMfV6Kr7nG-119" value="" style="endArrow=classic;html=1;rounded=0;exitX=0.5;exitY=1;exitDx=0;exitDy=0;entryX=0.5;entryY=0;entryDx=0;entryDy=0;" edge="1" parent="1" source="aZ85ElAMfdaMfV6Kr7nG-115" target="aZ85ElAMfdaMfV6Kr7nG-118">
          <mxGeometry width="50" height="50" relative="1" as="geometry">
            <mxPoint x="500" y="820" as="sourcePoint" />
            <mxPoint x="550" y="770" as="targetPoint" />
          </mxGeometry>
        </mxCell>
        <mxCell id="aZ85ElAMfdaMfV6Kr7nG-120" value="" style="endArrow=classic;html=1;rounded=0;entryX=0.5;entryY=0;entryDx=0;entryDy=0;" edge="1" parent="1" target="aZ85ElAMfdaMfV6Kr7nG-112">
          <mxGeometry width="50" height="50" relative="1" as="geometry">
            <mxPoint x="480" y="740" as="sourcePoint" />
            <mxPoint x="560" y="870" as="targetPoint" />
          </mxGeometry>
        </mxCell>
        <mxCell id="aZ85ElAMfdaMfV6Kr7nG-121" value="" style="endArrow=classic;html=1;rounded=0;entryX=0;entryY=0.5;entryDx=0;entryDy=0;" edge="1" parent="1" target="aZ85ElAMfdaMfV6Kr7nG-104">
          <mxGeometry width="50" height="50" relative="1" as="geometry">
            <mxPoint x="90" y="480" as="sourcePoint" />
            <mxPoint x="230" y="340" as="targetPoint" />
            <Array as="points">
              <mxPoint x="90" y="510" />
              <mxPoint x="90" y="520" />
              <mxPoint x="50" y="520" />
              <mxPoint x="50" y="255" />
            </Array>
          </mxGeometry>
        </mxCell>
        <mxCell id="aZ85ElAMfdaMfV6Kr7nG-122" value="" style="endArrow=classic;html=1;rounded=0;exitX=0.5;exitY=1;exitDx=0;exitDy=0;entryX=0;entryY=0.5;entryDx=0;entryDy=0;" edge="1" parent="1" source="aZ85ElAMfdaMfV6Kr7nG-91" target="aZ85ElAMfdaMfV6Kr7nG-111">
          <mxGeometry width="50" height="50" relative="1" as="geometry">
            <mxPoint x="200" y="900" as="sourcePoint" />
            <mxPoint x="350" y="480" as="targetPoint" />
            <Array as="points">
              <mxPoint x="155" y="720" />
              <mxPoint x="320" y="720" />
              <mxPoint x="320" y="490" />
            </Array>
          </mxGeometry>
        </mxCell>
        <mxCell id="aZ85ElAMfdaMfV6Kr7nG-123" value="" style="endArrow=classic;html=1;rounded=0;exitX=0.82;exitY=1.118;exitDx=0;exitDy=0;exitPerimeter=0;entryX=0.412;entryY=0.003;entryDx=0;entryDy=0;entryPerimeter=0;" edge="1" parent="1" source="aZ85ElAMfdaMfV6Kr7nG-105" target="aZ85ElAMfdaMfV6Kr7nG-125">
          <mxGeometry width="50" height="50" relative="1" as="geometry">
            <mxPoint x="720" y="330" as="sourcePoint" />
            <mxPoint x="770" y="280" as="targetPoint" />
            <Array as="points">
              <mxPoint x="526" y="340" />
              <mxPoint x="730" y="340" />
            </Array>
          </mxGeometry>
        </mxCell>
        <mxCell id="aZ85ElAMfdaMfV6Kr7nG-124" value="" style="endArrow=classic;html=1;rounded=0;exitX=0.804;exitY=1.328;exitDx=0;exitDy=0;exitPerimeter=0;entryX=1;entryY=0.5;entryDx=0;entryDy=0;" edge="1" parent="1" source="aZ85ElAMfdaMfV6Kr7nG-126" target="aZ85ElAMfdaMfV6Kr7nG-104">
          <mxGeometry width="50" height="50" relative="1" as="geometry">
            <mxPoint x="810" y="510" as="sourcePoint" />
            <mxPoint x="860" y="250" as="targetPoint" />
            <Array as="points">
              <mxPoint x="808" y="500" />
              <mxPoint x="880" y="500" />
              <mxPoint x="880" y="380" />
              <mxPoint x="880" y="255" />
            </Array>
          </mxGeometry>
        </mxCell>
        <mxCell id="aZ85ElAMfdaMfV6Kr7nG-125" value="Jednostka główna nie odbiera sygnału z więcej niż jednego czujnika" style="rounded=1;whiteSpace=wrap;html=1;shadow=0;comic=0;labelBackgroundColor=none;strokeWidth=1;fontFamily=Verdana;fontSize=12;align=center;arcSize=50;" vertex="1" parent="1">
          <mxGeometry x="640" y="360" width="220" height="60" as="geometry" />
        </mxCell>
        <mxCell id="aZ85ElAMfdaMfV6Kr7nG-126" value="" style="whiteSpace=wrap;html=1;rounded=0;shadow=0;comic=0;labelBackgroundColor=none;strokeWidth=1;fillColor=#000000;fontFamily=Verdana;fontSize=12;align=center;rotation=0;" vertex="1" parent="1">
          <mxGeometry x="655" y="450" width="190" height="10" as="geometry" />
        </mxCell>
        <mxCell id="aZ85ElAMfdaMfV6Kr7nG-127" value="" style="endArrow=classic;html=1;rounded=0;exitX=0.462;exitY=1.026;exitDx=0;exitDy=0;exitPerimeter=0;" edge="1" parent="1" source="aZ85ElAMfdaMfV6Kr7nG-125">
          <mxGeometry width="50" height="50" relative="1" as="geometry">
            <mxPoint x="750" y="640" as="sourcePoint" />
            <mxPoint x="742" y="450" as="targetPoint" />
          </mxGeometry>
        </mxCell>
        <mxCell id="aZ85ElAMfdaMfV6Kr7nG-128" value="&lt;font style=&quot;font-size: 9px;&quot;&gt;Jednostka główna ponawia próbę komunikacji z czujnikami&lt;/font&gt;" style="shape=note;whiteSpace=wrap;html=1;rounded=0;shadow=0;comic=0;labelBackgroundColor=none;strokeWidth=1;fontFamily=Verdana;fontSize=12;align=center;size=20;" vertex="1" parent="1">
          <mxGeometry x="640" y="160" width="150" height="34" as="geometry" />
        </mxCell>
        <mxCell id="aZ85ElAMfdaMfV6Kr7nG-129" style="edgeStyle=none;rounded=0;html=1;dashed=1;labelBackgroundColor=none;startArrow=none;startFill=0;startSize=5;endArrow=oval;endFill=0;endSize=5;jettySize=auto;orthogonalLoop=1;strokeWidth=1;fontFamily=Verdana;fontSize=12;exitX=0.623;exitY=0.965;exitDx=0;exitDy=0;exitPerimeter=0;" edge="1" parent="1" source="aZ85ElAMfdaMfV6Kr7nG-128">
          <mxGeometry relative="1" as="geometry">
            <mxPoint x="810" y="100" as="sourcePoint" />
            <mxPoint x="760" y="256" as="targetPoint" />
          </mxGeometry>
        </mxCell>
        <mxCell id="aZ85ElAMfdaMfV6Kr7nG-130" value="" style="endArrow=classic;html=1;rounded=0;exitX=0.62;exitY=1.346;exitDx=0;exitDy=0;exitPerimeter=0;" edge="1" parent="1" source="aZ85ElAMfdaMfV6Kr7nG-126">
          <mxGeometry width="50" height="50" relative="1" as="geometry">
            <mxPoint x="760" y="590" as="sourcePoint" />
            <mxPoint x="773" y="540" as="targetPoint" />
          </mxGeometry>
        </mxCell>
        <mxCell id="aZ85ElAMfdaMfV6Kr7nG-131" value="Jednostka główna sprawdza zasilanie, poprzez komunikację z układem zarządzania zasilaniem" style="rounded=1;whiteSpace=wrap;html=1;shadow=0;comic=0;labelBackgroundColor=none;strokeWidth=1;fontFamily=Verdana;fontSize=12;align=center;arcSize=50;" vertex="1" parent="1">
          <mxGeometry x="655" y="540" width="210" height="60" as="geometry" />
        </mxCell>
        <mxCell id="aZ85ElAMfdaMfV6Kr7nG-132" value="" style="whiteSpace=wrap;html=1;rounded=0;shadow=0;comic=0;labelBackgroundColor=none;strokeWidth=1;fillColor=#000000;fontFamily=Verdana;fontSize=12;align=center;rotation=0;" vertex="1" parent="1">
          <mxGeometry x="660" y="630" width="190" height="10" as="geometry" />
        </mxCell>
        <mxCell id="aZ85ElAMfdaMfV6Kr7nG-133" value="" style="endArrow=classic;html=1;rounded=0;exitX=0.5;exitY=1;exitDx=0;exitDy=0;" edge="1" parent="1" source="aZ85ElAMfdaMfV6Kr7nG-131">
          <mxGeometry width="50" height="50" relative="1" as="geometry">
            <mxPoint x="720" y="720" as="sourcePoint" />
            <mxPoint x="760" y="630" as="targetPoint" />
          </mxGeometry>
        </mxCell>
        <mxCell id="aZ85ElAMfdaMfV6Kr7nG-134" value="Zasilanie działa poprawnie" style="rounded=1;whiteSpace=wrap;html=1;shadow=0;comic=0;labelBackgroundColor=none;strokeWidth=1;fontFamily=Verdana;fontSize=12;align=center;arcSize=50;" vertex="1" parent="1">
          <mxGeometry x="900" y="700" width="105" height="60" as="geometry" />
        </mxCell>
        <mxCell id="aZ85ElAMfdaMfV6Kr7nG-135" value="" style="endArrow=classic;html=1;rounded=0;entryX=0.5;entryY=0;entryDx=0;entryDy=0;exitX=0.946;exitY=1.164;exitDx=0;exitDy=0;exitPerimeter=0;" edge="1" parent="1" source="aZ85ElAMfdaMfV6Kr7nG-132" target="aZ85ElAMfdaMfV6Kr7nG-134">
          <mxGeometry width="50" height="50" relative="1" as="geometry">
            <mxPoint x="860" y="643" as="sourcePoint" />
            <mxPoint x="775" y="770" as="targetPoint" />
            <Array as="points">
              <mxPoint x="840" y="670" />
              <mxPoint x="953" y="670" />
            </Array>
          </mxGeometry>
        </mxCell>
        <mxCell id="aZ85ElAMfdaMfV6Kr7nG-136" value="Generowanie raportu o usterce czujników" style="rounded=1;whiteSpace=wrap;html=1;shadow=0;comic=0;labelBackgroundColor=none;strokeWidth=1;fontFamily=Verdana;fontSize=12;align=center;arcSize=50;" vertex="1" parent="1">
          <mxGeometry x="895" y="800" width="115" height="50" as="geometry" />
        </mxCell>
        <mxCell id="aZ85ElAMfdaMfV6Kr7nG-137" value="Układ zarządzania zasilaniem ma awarię" style="rounded=1;whiteSpace=wrap;html=1;shadow=0;comic=0;labelBackgroundColor=none;strokeWidth=1;fontFamily=Verdana;fontSize=12;align=center;arcSize=50;" vertex="1" parent="1">
          <mxGeometry x="625" y="710" width="140" height="60" as="geometry" />
        </mxCell>
        <mxCell id="aZ85ElAMfdaMfV6Kr7nG-138" value="" style="endArrow=classic;html=1;rounded=0;exitX=0.5;exitY=1;exitDx=0;exitDy=0;entryX=0.5;entryY=0;entryDx=0;entryDy=0;" edge="1" parent="1" source="aZ85ElAMfdaMfV6Kr7nG-134" target="aZ85ElAMfdaMfV6Kr7nG-136">
          <mxGeometry width="50" height="50" relative="1" as="geometry">
            <mxPoint x="735" y="810" as="sourcePoint" />
            <mxPoint x="785" y="760" as="targetPoint" />
          </mxGeometry>
        </mxCell>
        <mxCell id="aZ85ElAMfdaMfV6Kr7nG-139" value="" style="endArrow=classic;html=1;rounded=0;exitX=0.5;exitY=1;exitDx=0;exitDy=0;" edge="1" parent="1" source="aZ85ElAMfdaMfV6Kr7nG-136">
          <mxGeometry width="50" height="50" relative="1" as="geometry">
            <mxPoint x="885" y="970" as="sourcePoint" />
            <mxPoint x="953" y="900" as="targetPoint" />
          </mxGeometry>
        </mxCell>
        <mxCell id="aZ85ElAMfdaMfV6Kr7nG-140" value="Przejście w stan serwisowy" style="rounded=1;whiteSpace=wrap;html=1;shadow=0;comic=0;labelBackgroundColor=none;strokeWidth=1;fontFamily=Verdana;fontSize=12;align=center;arcSize=50;" vertex="1" parent="1">
          <mxGeometry x="902.5" y="900" width="100" height="60" as="geometry" />
        </mxCell>
        <mxCell id="aZ85ElAMfdaMfV6Kr7nG-141" value="" style="endArrow=classic;html=1;rounded=0;exitX=0.5;exitY=1;exitDx=0;exitDy=0;entryX=0.676;entryY=-0.236;entryDx=0;entryDy=0;entryPerimeter=0;" edge="1" parent="1" source="aZ85ElAMfdaMfV6Kr7nG-140" target="aZ85ElAMfdaMfV6Kr7nG-148">
          <mxGeometry width="50" height="50" relative="1" as="geometry">
            <mxPoint x="907.5" y="960" as="sourcePoint" />
            <mxPoint x="907.5" y="1020" as="targetPoint" />
            <Array as="points">
              <mxPoint x="953" y="1000" />
              <mxPoint x="836" y="1000" />
            </Array>
          </mxGeometry>
        </mxCell>
        <mxCell id="aZ85ElAMfdaMfV6Kr7nG-142" value="System przechodzi w stan uśpienia" style="rounded=1;whiteSpace=wrap;html=1;shadow=0;comic=0;labelBackgroundColor=none;strokeWidth=1;fontFamily=Verdana;fontSize=12;align=center;arcSize=50;" vertex="1" parent="1">
          <mxGeometry x="370" y="1190" width="200" height="80" as="geometry" />
        </mxCell>
        <mxCell id="aZ85ElAMfdaMfV6Kr7nG-143" value="" style="endArrow=classic;html=1;rounded=0;exitX=0.25;exitY=1;exitDx=0;exitDy=0;" edge="1" parent="1" source="aZ85ElAMfdaMfV6Kr7nG-132">
          <mxGeometry width="50" height="50" relative="1" as="geometry">
            <mxPoint x="680" y="780" as="sourcePoint" />
            <mxPoint x="708" y="710" as="targetPoint" />
          </mxGeometry>
        </mxCell>
        <mxCell id="aZ85ElAMfdaMfV6Kr7nG-144" value="" style="endArrow=classic;html=1;rounded=0;exitX=0.406;exitY=1.053;exitDx=0;exitDy=0;entryX=0.437;entryY=0.003;entryDx=0;entryDy=0;exitPerimeter=0;entryPerimeter=0;" edge="1" parent="1" source="aZ85ElAMfdaMfV6Kr7nG-137" target="aZ85ElAMfdaMfV6Kr7nG-145">
          <mxGeometry width="50" height="50" relative="1" as="geometry">
            <mxPoint x="680" y="970" as="sourcePoint" />
            <mxPoint x="725" y="810" as="targetPoint" />
          </mxGeometry>
        </mxCell>
        <mxCell id="aZ85ElAMfdaMfV6Kr7nG-145" value="Generowanie raportu o usterce systemu zasilania" style="rounded=1;whiteSpace=wrap;html=1;shadow=0;comic=0;labelBackgroundColor=none;strokeWidth=1;fontFamily=Verdana;fontSize=12;align=center;arcSize=50;" vertex="1" parent="1">
          <mxGeometry x="625" y="810" width="130" height="70" as="geometry" />
        </mxCell>
        <mxCell id="aZ85ElAMfdaMfV6Kr7nG-146" value="" style="endArrow=classic;html=1;rounded=0;exitX=0.5;exitY=1;exitDx=0;exitDy=0;entryX=0.438;entryY=-0.03;entryDx=0;entryDy=0;entryPerimeter=0;" edge="1" parent="1" source="aZ85ElAMfdaMfV6Kr7nG-145" target="aZ85ElAMfdaMfV6Kr7nG-147">
          <mxGeometry width="50" height="50" relative="1" as="geometry">
            <mxPoint x="710" y="1000" as="sourcePoint" />
            <mxPoint x="730" y="920" as="targetPoint" />
          </mxGeometry>
        </mxCell>
        <mxCell id="aZ85ElAMfdaMfV6Kr7nG-147" value="Przejście w stan alarmowy" style="rounded=1;whiteSpace=wrap;html=1;shadow=0;comic=0;labelBackgroundColor=none;strokeWidth=1;fontFamily=Verdana;fontSize=12;align=center;arcSize=50;" vertex="1" parent="1">
          <mxGeometry x="645" y="920" width="100" height="60" as="geometry" />
        </mxCell>
        <mxCell id="aZ85ElAMfdaMfV6Kr7nG-148" value="" style="whiteSpace=wrap;html=1;rounded=0;shadow=0;comic=0;labelBackgroundColor=none;strokeWidth=1;fillColor=#000000;fontFamily=Verdana;fontSize=12;align=center;rotation=0;" vertex="1" parent="1">
          <mxGeometry x="707.5" y="1040" width="190" height="10" as="geometry" />
        </mxCell>
        <mxCell id="aZ85ElAMfdaMfV6Kr7nG-149" value="" style="endArrow=classic;html=1;rounded=0;entryX=0.25;entryY=0;entryDx=0;entryDy=0;exitX=0.75;exitY=1;exitDx=0;exitDy=0;" edge="1" parent="1" source="aZ85ElAMfdaMfV6Kr7nG-147" target="aZ85ElAMfdaMfV6Kr7nG-148">
          <mxGeometry width="50" height="50" relative="1" as="geometry">
            <mxPoint x="710" y="1150" as="sourcePoint" />
            <mxPoint x="760" y="1100" as="targetPoint" />
            <Array as="points">
              <mxPoint x="720" y="1010" />
              <mxPoint x="755" y="1010" />
            </Array>
          </mxGeometry>
        </mxCell>
        <mxCell id="aZ85ElAMfdaMfV6Kr7nG-150" value="" style="endArrow=classic;html=1;rounded=0;exitX=0.5;exitY=1;exitDx=0;exitDy=0;" edge="1" parent="1" source="aZ85ElAMfdaMfV6Kr7nG-148">
          <mxGeometry width="50" height="50" relative="1" as="geometry">
            <mxPoint x="650" y="1200" as="sourcePoint" />
            <mxPoint x="480" y="1140" as="targetPoint" />
            <Array as="points">
              <mxPoint x="803" y="1110" />
              <mxPoint x="480" y="1110" />
            </Array>
          </mxGeometry>
        </mxCell>
        <mxCell id="aZ85ElAMfdaMfV6Kr7nG-151" value="" style="endArrow=classic;html=1;rounded=0;exitX=0.75;exitY=1;exitDx=0;exitDy=0;" edge="1" parent="1" source="aZ85ElAMfdaMfV6Kr7nG-132">
          <mxGeometry width="50" height="50" relative="1" as="geometry">
            <mxPoint x="810" y="800" as="sourcePoint" />
            <mxPoint x="803" y="740" as="targetPoint" />
          </mxGeometry>
        </mxCell>
        <mxCell id="aZ85ElAMfdaMfV6Kr7nG-152" value="Układ komunikuje o zbyt małej ilości energii" style="rounded=1;whiteSpace=wrap;html=1;shadow=0;comic=0;labelBackgroundColor=none;strokeWidth=1;fontFamily=Verdana;fontSize=12;align=center;arcSize=50;" vertex="1" parent="1">
          <mxGeometry x="755" y="740" width="150" height="70" as="geometry" />
        </mxCell>
        <mxCell id="aZ85ElAMfdaMfV6Kr7nG-153" value="" style="endArrow=classic;html=1;rounded=0;exitX=0.25;exitY=1;exitDx=0;exitDy=0;entryX=0.454;entryY=0.091;entryDx=0;entryDy=0;entryPerimeter=0;" edge="1" parent="1" source="aZ85ElAMfdaMfV6Kr7nG-152" target="aZ85ElAMfdaMfV6Kr7nG-148">
          <mxGeometry width="50" height="50" relative="1" as="geometry">
            <mxPoint x="790" y="930" as="sourcePoint" />
            <mxPoint x="840" y="880" as="targetPoint" />
          </mxGeometry>
        </mxCell>
        <mxCell id="aZ85ElAMfdaMfV6Kr7nG-154" value="&lt;font style=&quot;font-size: 9px;&quot;&gt;Układ przechodzi w stan uśpienia w celu zmagazynowania dodatkowej energii&lt;/font&gt;" style="shape=note;whiteSpace=wrap;html=1;rounded=0;shadow=0;comic=0;labelBackgroundColor=none;strokeWidth=1;fontFamily=Verdana;fontSize=12;align=center;size=20;" vertex="1" parent="1">
          <mxGeometry x="805" y="820" width="95" height="100" as="geometry" />
        </mxCell>
        <mxCell id="aZ85ElAMfdaMfV6Kr7nG-155" style="edgeStyle=none;rounded=0;html=1;dashed=1;labelBackgroundColor=none;startArrow=none;startFill=0;startSize=5;endArrow=oval;endFill=0;endSize=5;jettySize=auto;orthogonalLoop=1;strokeWidth=1;fontFamily=Verdana;fontSize=12;exitX=0.24;exitY=0.986;exitDx=0;exitDy=0;exitPerimeter=0;" edge="1" parent="1" source="aZ85ElAMfdaMfV6Kr7nG-154">
          <mxGeometry relative="1" as="geometry">
            <mxPoint x="830" y="930" as="sourcePoint" />
            <mxPoint x="800" y="960" as="targetPoint" />
          </mxGeometry>
        </mxCell>
        <mxCell id="aZ85ElAMfdaMfV6Kr7nG-156" value="" style="whiteSpace=wrap;html=1;rounded=0;shadow=0;comic=0;labelBackgroundColor=none;strokeWidth=1;fillColor=#000000;fontFamily=Verdana;fontSize=12;align=center;rotation=0;" vertex="1" parent="1">
          <mxGeometry x="375" y="1140" width="190" height="10" as="geometry" />
        </mxCell>
        <mxCell id="aZ85ElAMfdaMfV6Kr7nG-157" value="" style="endArrow=classic;html=1;rounded=0;exitX=0.5;exitY=1;exitDx=0;exitDy=0;entryX=0.5;entryY=0;entryDx=0;entryDy=0;" edge="1" parent="1" source="aZ85ElAMfdaMfV6Kr7nG-156" target="aZ85ElAMfdaMfV6Kr7nG-142">
          <mxGeometry width="50" height="50" relative="1" as="geometry">
            <mxPoint x="240" y="1260" as="sourcePoint" />
            <mxPoint x="290" y="1210" as="targetPoint" />
          </mxGeometry>
        </mxCell>
        <mxCell id="aZ85ElAMfdaMfV6Kr7nG-158" value="" style="endArrow=classic;html=1;rounded=0;exitX=0.5;exitY=1;exitDx=0;exitDy=0;" edge="1" parent="1" source="aZ85ElAMfdaMfV6Kr7nG-142">
          <mxGeometry width="50" height="50" relative="1" as="geometry">
            <mxPoint x="430" y="1380" as="sourcePoint" />
            <mxPoint x="470" y="1320" as="targetPoint" />
          </mxGeometry>
        </mxCell>
        <mxCell id="aZ85ElAMfdaMfV6Kr7nG-159" value="" style="shape=mxgraph.bpmn.shape;html=1;verticalLabelPosition=bottom;labelBackgroundColor=#ffffff;verticalAlign=top;perimeter=ellipsePerimeter;outline=end;symbol=terminate;rounded=0;shadow=0;comic=0;strokeWidth=1;fontFamily=Verdana;fontSize=12;align=center;" vertex="1" parent="1">
          <mxGeometry x="450" y="1320" width="40" height="40" as="geometry" />
        </mxCell>
        <mxCell id="aZ85ElAMfdaMfV6Kr7nG-160" value="&lt;font style=&quot;font-size: 24px;&quot;&gt;Pomiary&lt;/font&gt;" style="text;html=1;strokeColor=none;fillColor=none;align=center;verticalAlign=middle;whiteSpace=wrap;rounded=0;" vertex="1" parent="1">
          <mxGeometry x="170" y="20" width="590" height="30" as="geometry" />
        </mxCell>
      </root>
    </mxGraphModel>
  </diagram>
</mxfile>
